<svg xmlns="http://www.w3.org/2000/svg" width="1200" height="620" viewBox="0 0 1200 620">
<rect width="100%" height="100%" fill="white"/>
<text x="380" y="42" font-size="28" font-family="Arial" font-weight="bold" fill="#1f2937">Fastest increases in China exposure (2020-2024)</text>
<text x="380" y="72" font-size="15" font-family="Arial" fill="#4b5563">HS2 sectors ranked by change in China&#x27;s share of Polish imports</text>
<text x="368" y="137" text-anchor="end" font-size="14" font-family="Arial" fill="#111827">Books, newspapers, &amp; other prints</text>
<rect x="380" y="120" width="277.6" height="24" rx="4" fill="#2a9d8f"/>
<text x="667.6" y="137" font-size="13" font-family="Arial" fill="#111827">+6.4 pp</text>
<text x="368" y="179" text-anchor="end" font-size="14" font-family="Arial" fill="#111827">Feather articles, feathers, artificial flowers, &amp; a…</text>
<rect x="380" y="162" width="311.5" height="24" rx="4" fill="#2a9d8f"/>
<text x="701.5" y="179" font-size="13" font-family="Arial" fill="#111827">+7.2 pp</text>
<text x="368" y="221" text-anchor="end" font-size="14" font-family="Arial" fill="#111827">Misc. manufactures</text>
<rect x="380" y="204" width="349.8" height="24" rx="4" fill="#2a9d8f"/>
<text x="739.8" y="221" font-size="13" font-family="Arial" fill="#111827">+8.1 pp</text>
<text x="368" y="263" text-anchor="end" font-size="14" font-family="Arial" fill="#111827">Photo &amp; movie goods</text>
<rect x="380" y="246" width="371.4" height="24" rx="4" fill="#2a9d8f"/>
<text x="761.4" y="263" font-size="13" font-family="Arial" fill="#111827">+8.6 pp</text>
<text x="368" y="305" text-anchor="end" font-size="14" font-family="Arial" fill="#111827">Cotton</text>
<rect x="380" y="288" width="382.4" height="24" rx="4" fill="#2a9d8f"/>
<text x="772.4" y="305" font-size="13" font-family="Arial" fill="#111827">+8.8 pp</text>
<text x="368" y="347" text-anchor="end" font-size="14" font-family="Arial" fill="#111827">Tools &amp; cutlery</text>
<rect x="380" y="330" width="425.9" height="24" rx="4" fill="#2a9d8f"/>
<text x="815.9" y="347" font-size="13" font-family="Arial" fill="#111827">+9.8 pp</text>
<text x="368" y="389" text-anchor="end" font-size="14" font-family="Arial" fill="#111827">Knitted fabrics</text>
<rect x="380" y="372" width="460.5" height="24" rx="4" fill="#2a9d8f"/>
<text x="850.5" y="389" font-size="13" font-family="Arial" fill="#111827">+10.6 pp</text>
<text x="368" y="431" text-anchor="end" font-size="14" font-family="Arial" fill="#111827">Ships, boats, &amp; floating structures</text>
<rect x="380" y="414" width="506.3" height="24" rx="4" fill="#2a9d8f"/>
<text x="896.3" y="431" font-size="13" font-family="Arial" fill="#111827">+11.7 pp</text>
<text x="368" y="473" text-anchor="end" font-size="14" font-family="Arial" fill="#111827">Vegetable textile fibers, paper yarn &amp; fabrics</text>
<rect x="380" y="456" width="558.5" height="24" rx="4" fill="#2a9d8f"/>
<text x="948.5" y="473" font-size="13" font-family="Arial" fill="#111827">+12.9 pp</text>
<text x="368" y="515" text-anchor="end" font-size="14" font-family="Arial" fill="#111827">Special woven fabrics and tapestries</text>
<rect x="380" y="498" width="700.0" height="24" rx="4" fill="#2a9d8f"/>
<text x="1090.0" y="515" font-size="13" font-family="Arial" fill="#111827">+16.2 pp</text>
</svg>